<svg width="32" height="56" viewBox="0 0 60 56" fill="none" xmlns="http://www.w3.org/2000/svg">
<path d="M14.4742 6.7686C14.4742 10.5068 11.2341 13.5372 7.23711 13.5372C3.24017 13.5372 0 10.5068 0 6.7686C0 3.0304 3.24017 0 7.23711 0C11.2341 0 14.4742 3.0304 14.4742 6.7686Z" fill="white"/>
<path d="M0.989691 18.5124H13.3608V56H0.989691V18.5124Z" fill="white"/>
<path d="M33.2784 18.5124H20.9072V56H33.2784C33.2784 56 33.2784 44.1984 33.2784 36.8194C33.2784 32.3905 34.7906 27.9422 40.8247 27.9422C47.6441 27.9422 47.603 33.7381 47.5712 38.2284C47.5468 41.6706 47.5709 45.1542 47.5949 48.6394C47.6119 51.0968 47.6289 53.555 47.6289 56H60V36.2149C59.8952 23.5815 56.6033 17.7603 45.7732 17.7603C39.3416 17.7603 35.3548 20.6802 33.2784 23.322V18.5124Z" fill="white"/>
<path fill-rule="evenodd" clip-rule="evenodd" d="M7.23711 13.5372C11.2341 13.5372 14.4742 10.5068 14.4742 6.7686C14.4742 3.0304 11.2341 0 7.23711 0C3.24017 0 0 3.0304 0 6.7686C0 10.5068 3.24017 13.5372 7.23711 13.5372ZM13.3608 18.5124H0.989691V56H13.3608V18.5124ZM20.9072 18.5124H33.2784V23.322C35.3548 20.6802 39.3416 17.7603 45.7732 17.7603C56.6033 17.7603 59.8952 23.5815 60 36.2149V56H47.6289C47.6289 53.555 47.6119 51.0968 47.5949 48.6394C47.5709 45.1542 47.5468 41.6706 47.5712 38.2284C47.603 33.7381 47.6441 27.9422 40.8247 27.9422C34.7906 27.9422 33.2784 32.3905 33.2784 36.8194V56H20.9072V18.5124Z" fill="white"/>
</svg>
