<svg width="18" height="18" viewBox="0 0 18 18" fill="none" xmlns="http://www.w3.org/2000/svg">
<g id="mail">
<mask id="mask0_195_583" style="mask-type:alpha" maskUnits="userSpaceOnUse" x="0" y="0" width="18" height="18">
<rect id="Bounding box" width="18" height="18" fill="#D9D9D9"/>
</mask>
<g mask="url(#mask0_195_583)">
<path id="mail_2" d="M4.5 15C4.0875 15 3.7345 14.8532 3.441 14.5597C3.147 14.2657 3 13.9125 3 13.5V4.5C3 4.0875 3.147 3.7345 3.441 3.441C3.7345 3.147 4.0875 3 4.5 3H16.5C16.9125 3 17.2657 3.147 17.5597 3.441C17.8533 3.7345 18 4.0875 18 4.5V13.5C18 13.9125 17.8533 14.2657 17.5597 14.5597C17.2657 14.8532 16.9125 15 16.5 15H4.5ZM10.5 9.61875C10.5625 9.61875 10.628 9.60925 10.6965 9.59025C10.7655 9.57175 10.8312 9.54375 10.8937 9.50625L16.2 6.1875C16.3 6.125 16.375 6.047 16.425 5.9535C16.475 5.8595 16.5 5.75625 16.5 5.64375C16.5 5.39375 16.3938 5.20625 16.1813 5.08125C15.9688 4.95625 15.75 4.9625 15.525 5.1L10.5 8.25L5.475 5.1C5.25 4.9625 5.03125 4.95925 4.81875 5.09025C4.60625 5.22175 4.5 5.40625 4.5 5.64375C4.5 5.76875 4.525 5.878 4.575 5.9715C4.625 6.0655 4.7 6.1375 4.8 6.1875L10.1063 9.50625C10.1688 9.54375 10.2345 9.57175 10.3035 9.59025C10.372 9.60925 10.4375 9.61875 10.5 9.61875Z" fill="white"/>
</g>
</g>
</svg>
