<svg width="40" height="40" viewBox="0 0 40 40" fill="none" xmlns="http://www.w3.org/2000/svg">
<path d="M29.9988 25.1447H7.77655L0.369141 32.7638V2.28757C0.369141 1.7824 0.564246 1.29792 0.911535 0.940704C1.25882 0.583492 1.72985 0.382813 2.22099 0.382812H29.9988C30.4899 0.382813 30.9609 0.583492 31.3082 0.940704C31.6555 1.29792 31.8506 1.7824 31.8506 2.28757V23.24C31.8506 23.7451 31.6555 24.2296 31.3082 24.5868C30.9609 24.944 30.4899 25.1447 29.9988 25.1447ZM39.258 13.7161V40.3828L31.8506 32.7638H11.4803C10.9891 32.7638 10.5181 32.5631 10.1708 32.2059C9.82351 31.8487 9.6284 31.3642 9.6284 30.859V28.9542H35.5543V11.8114H37.4062C37.8973 11.8114 38.3683 12.0121 38.7156 12.3693C39.0629 12.7265 39.258 13.211 39.258 13.7161ZM11.8321 4.19234C10.221 4.19234 8.9247 4.57329 7.9247 5.31615C6.96173 6.0971 6.48025 7.18281 6.49877 8.68757L6.51729 8.74472H10.0914C10.1099 8.17329 10.2765 7.73519 10.6099 7.43043C10.9528 7.13794 11.3867 6.98241 11.8321 6.99234C12.4062 6.99234 12.8877 7.18281 13.221 7.52567C13.5543 7.88757 13.7025 8.38281 13.7025 8.95424C13.7025 9.56376 13.5728 10.0781 13.2765 10.5161C13.0173 10.9542 12.6284 11.3352 12.1469 11.64C11.2025 12.2876 10.5543 12.859 10.2025 13.3733C9.8321 13.8685 9.6284 14.6685 9.6284 15.6209H13.3321C13.3321 15.0304 13.4062 14.5542 13.5728 14.2114C13.7395 13.8685 14.0543 13.5257 14.5173 13.2209C15.3506 12.7638 16.0358 12.2114 16.5728 11.4495C17.1099 10.6876 17.3877 9.90662 17.3877 8.95424C17.3877 7.50662 16.8877 6.34472 15.8877 5.48757C14.9062 4.63043 13.5543 4.19234 11.8321 4.19234ZM9.6284 17.5257V21.3352H13.3321V17.5257H9.6284ZM20.7395 21.3352H24.4432V17.5257H20.7395V21.3352ZM20.7395 4.19234V15.6209H24.4432V4.19234H20.7395Z" fill="#FFF35F"/>
</svg>
