<svg width="35" height="35" viewBox="0 0 35 35" fill="none" xmlns="http://www.w3.org/2000/svg">
<path id="search" d="M31.2261 34.0239L20.2282 23.0104C19.2463 23.797 18.117 24.4198 16.8405 24.8787C15.5639 25.3376 14.2056 25.5671 12.7654 25.5671C9.19762 25.5671 6.17844 24.33 3.70785 21.8559C1.23595 19.3805 0 16.3564 0 12.7835C0 9.2107 1.23595 6.18657 3.70785 3.71116C6.17844 1.23705 9.19762 0 12.7654 0C16.3331 0 19.353 1.23705 21.8249 3.71116C24.2955 6.18657 25.5308 9.2107 25.5308 12.7835C25.5308 14.2258 25.3016 15.5861 24.8434 16.8644C24.3851 18.1428 23.7632 19.2736 22.9777 20.257L34.0246 31.3197C34.3847 31.6802 34.5647 32.1227 34.5647 32.6472C34.5647 33.1716 34.3683 33.6305 33.9755 34.0239C33.6155 34.3844 33.1572 34.5647 32.6008 34.5647C32.0444 34.5647 31.5861 34.3844 31.2261 34.0239ZM12.7654 21.6337C15.2203 21.6337 17.3072 20.7736 19.0263 19.0534C20.7441 17.3318 21.6029 15.2419 21.6029 12.7835C21.6029 10.3252 20.7441 8.23522 19.0263 6.5137C17.3072 4.7935 15.2203 3.93339 12.7654 3.93339C10.3105 3.93339 8.22352 4.7935 6.50445 6.5137C4.78669 8.23522 3.92781 10.3252 3.92781 12.7835C3.92781 15.2419 4.78669 17.3318 6.50445 19.0534C8.22352 20.7736 10.3105 21.6337 12.7654 21.6337Z" fill="#01001B" fill-opacity="0.5"/>
</svg>
