<svg width="32" height="44" viewBox="0 0 61 44" fill="none" xmlns="http://www.w3.org/2000/svg">
<path fill-rule="evenodd" clip-rule="evenodd" d="M8.5933 0.689581C4.2786 0.905446 0.812687 4.31713 0.532674 8.67044C0.2644 12.8412 0 17.9732 0 22C0 26.0268 0.2644 31.1588 0.532674 35.3296C0.812687 39.6829 4.2786 43.0946 8.5933 43.3104C14.8413 43.623 23.7714 44 30.5 44C37.2286 44 46.1587 43.623 52.4067 43.3104C56.7214 43.0946 60.1873 39.6829 60.4673 35.3296C60.7356 31.1588 61 26.0268 61 22C61 17.9732 60.7356 12.8412 60.4673 8.67044C60.1873 4.31713 56.7214 0.905445 52.4067 0.689581C46.1587 0.376996 37.2286 0 30.5 0C23.7714 0 14.8413 0.376996 8.5933 0.689581ZM41.3929 22L23.9643 13.2V30.8L41.3929 22Z" fill="white"/>
</svg>
